# xmcd
#
# Track frame offsets:
#	150
#	16180
#	30147
#	44435
#	65520
#	81245
#	99915
#	114397
#	133445
#	147992
#	162962
#	180960
#	197557
#	215795
#	232340
#
# Disc length: 3282 seconds
#
# Revision: 1
# Processed by: cddbd v1.5.1PL2 Copyright (c) Steve Scherf et al.
# Submitted via: audiograbber 1.83.01
#
DISCID=ce0cd00f
DTITLE=Music Maestro - MM6294
DYEAR=1900
DGENRE=Karaoke
TTITLE0=Strait, George - Best Day, The
TTITLE1=Brooks, Garth - Do What You Gotta Do
TTITLE2=Yankee Grey - Another Nine Minutes
TTITLE3=Twain, Shania - Rock This Country
TTITLE4=Griggs, Andy - She's More
TTITLE5=Andrews, Jessica - Unbreakable Heart
TTITLE6=Reeves, Julie - What I Need
TTITLE7=Alabama - Twentieth Century
TTITLE8=Black, Clint and Steve Wariner - Been There
TTITLE9=Stone, Doug - Take A Letter Maria
TTITLE10=McCann, Lila - I Will Be
TTITLE11=Day, Jennifer - Fun Of Your Love, The
TTITLE12=Yearwood, Trisha - Real Live Woman
TTITLE13=Shedaisy - I Will, But
TTITLE14=Hill, Faith - Way You Love Me, The
EXTD=As Listed In KJ Pro
EXTT0=
EXTT1=
EXTT2=
EXTT3=
EXTT4=
EXTT5=
EXTT6=
EXTT7=
EXTT8=
EXTT9=
EXTT10=
EXTT11=
EXTT12=
EXTT13=
EXTT14=
PLAYORDER=
